<svg width="41" height="40" viewBox="0 0 41 40" fill="none" xmlns="http://www.w3.org/2000/svg">
<g clip-path="url(#clip0_1854_715)">
<path fill-rule="evenodd" clip-rule="evenodd" d="M36.75 20C36.75 24.3098 35.038 28.443 31.9905 31.4905C28.943 34.538 24.8098 36.25 20.5 36.25C16.1902 36.25 12.057 34.538 9.00951 31.4905C5.96205 28.443 4.25 24.3098 4.25 20C4.25 15.6902 5.96205 11.557 9.00951 8.50951C12.057 5.46205 16.1902 3.75 20.5 3.75C24.8098 3.75 28.943 5.46205 31.9905 8.50951C35.038 11.557 36.75 15.6902 36.75 20ZM40.5 20C40.5 25.3043 38.3929 30.3914 34.6421 34.1421C30.8914 37.8929 25.8043 40 20.5 40C15.1957 40 10.1086 37.8929 6.35786 34.1421C2.60714 30.3914 0.5 25.3043 0.5 20C0.5 14.6957 2.60714 9.60859 6.35786 5.85786C10.1086 2.10714 15.1957 0 20.5 0C25.8043 0 30.8914 2.10714 34.6421 5.85786C38.3929 9.60859 40.5 14.6957 40.5 20ZM13.63 11.75C14.4911 11.2545 15.5137 11.121 16.4732 11.3788C17.4327 11.6366 18.2506 12.2647 18.7475 13.125C18.9106 13.4119 18.9537 13.7518 18.8672 14.0703C18.7807 14.3889 18.5717 14.6603 18.2859 14.8253C18 14.9904 17.6605 15.0357 17.3414 14.9513C17.0222 14.8669 16.7494 14.6598 16.5825 14.375C16.4728 14.1854 16.3153 14.028 16.1257 13.9185C15.936 13.809 15.721 13.7512 15.502 13.751C15.283 13.7507 15.0678 13.808 14.8779 13.9171C14.688 14.0262 14.5301 14.1832 14.42 14.3725C14.2536 14.6593 13.9801 14.8682 13.6596 14.9533C13.3391 15.0384 12.998 14.9927 12.7113 14.8263C12.4245 14.6598 12.2156 14.3863 12.1305 14.0658C12.0454 13.7454 12.0911 13.4043 12.2575 13.1175C12.588 12.549 13.0597 12.0774 13.63 11.75ZM20.5 30C23.1522 30 25.6957 28.9464 27.5711 27.0711C29.4464 25.1957 30.5 22.6522 30.5 20H10.5C10.5 22.6522 11.5536 25.1957 13.4289 27.0711C15.3043 28.9464 17.8478 30 20.5 30ZM23.63 11.75C24.4911 11.2545 25.5137 11.121 26.4732 11.3788C27.4327 11.6366 28.2506 12.2647 28.7475 13.125C28.8309 13.2672 28.8853 13.4245 28.9076 13.5878C28.93 13.7512 28.9198 13.9173 28.8776 14.0767C28.8355 14.2361 28.7622 14.3855 28.6621 14.5165C28.562 14.6474 28.4369 14.7573 28.2942 14.8397C28.1514 14.9221 27.9937 14.9755 27.8303 14.9968C27.6668 15.018 27.5007 15.0067 27.3416 14.9635C27.1825 14.9203 27.0336 14.8461 26.9033 14.7451C26.773 14.6441 26.664 14.5183 26.5825 14.375C26.4728 14.1854 26.3153 14.028 26.1257 13.9185C25.936 13.809 25.721 13.7512 25.502 13.751C25.283 13.7507 25.0678 13.808 24.8779 13.9171C24.688 14.0262 24.5301 14.1832 24.42 14.3725C24.2536 14.6593 23.9801 14.8682 23.6596 14.9533C23.3391 15.0384 22.998 14.9927 22.7112 14.8263C22.4245 14.6598 22.2156 14.3863 22.1305 14.0658C22.0454 13.7454 22.0911 13.4043 22.2575 13.1175C22.588 12.549 23.0622 12.0774 23.6325 11.75H23.63Z" fill="#FFAFAA"/>
</g>
<defs>
<clipPath id="clip0_1854_715">
<rect width="40" height="40" fill="white" transform="translate(0.5)"/>
</clipPath>
</defs>
</svg>
