<svg width="24" height="25" viewBox="0 0 24 25" fill="none" xmlns="http://www.w3.org/2000/svg">
<path d="M22 12.5C22 17.214 22 19.571 20.535 21.035C19.072 22.5 16.714 22.5 12 22.5C7.286 22.5 4.929 22.5 3.464 21.035C2 19.572 2 17.214 2 12.5C2 7.786 2 5.429 3.464 3.964C4.93 2.5 7.286 2.5 12 2.5" stroke="#AAB4BC" stroke-width="1.5" stroke-linecap="round"/>
<path opacity="0.5" d="M2 12.9999L3.752 11.4669C4.19114 11.083 4.75974 10.8802 5.34272 10.8997C5.9257 10.9192 6.47949 11.1595 6.892 11.5719L11.182 15.8619C11.5149 16.1947 11.9546 16.3995 12.4235 16.4401C12.8925 16.4807 13.3608 16.3546 13.746 16.0839L14.045 15.8739C14.6006 15.4837 15.2721 15.2935 15.9498 15.3343C16.6275 15.3752 17.2713 15.6447 17.776 16.0989L21 18.9999" stroke="#AAB4BC" stroke-width="1.5" stroke-linecap="round"/>
<path d="M15 6H18.5M18.5 6H22M18.5 6V9.5M18.5 6V2.5" stroke="#AAB4BC" stroke-width="1.5" stroke-linecap="round"/>
</svg>
