<svg width="27" height="27" viewBox="0 0 27 27" xmlns="http://www.w3.org/2000/svg">
<path id="Vector" fill-rule="evenodd" clip-rule="evenodd" d="M13.8635 2.67469C13.6261 2.60985 13.3739 2.60985 13.1364 2.67469C13.0682 2.69335 12.9481 2.74005 12.6926 2.92144C12.424 3.11221 12.0952 3.38523 11.5827 3.81248L4.77119 9.49119C3.93614 10.1874 3.69942 10.3974 3.53484 10.6295C3.37652 10.8529 3.25859 11.0992 3.18578 11.3585C3.11008 11.6282 3.10007 11.9335 3.10007 12.9815V19.0791C3.10007 20.1411 3.10112 20.863 3.15049 21.4207C3.19858 21.9639 3.28571 22.2412 3.3928 22.4344C3.63947 22.8798 4.02666 23.2431 4.50153 23.4744C4.70767 23.5748 5.00328 23.6565 5.58235 23.7016C6.17696 23.748 6.94671 23.7489 8.07903 23.7489H8.30003V20.0911C8.30003 17.3976 10.6281 15.214 13.5 15.214C16.3719 15.214 18.7 17.3976 18.7 20.0911V23.7489H18.921C20.0533 23.7489 20.823 23.748 21.4176 23.7016C21.9967 23.6565 22.2923 23.5748 22.4984 23.4744C22.9733 23.2431 23.3605 22.8798 23.6072 22.4344C23.7143 22.2412 23.8014 21.9639 23.8495 21.4207C23.8988 20.863 23.9 20.1411 23.9 19.0791V12.9815C23.9 11.9335 23.89 11.6282 23.8142 11.3585C23.7414 11.0992 23.6235 10.8529 23.4651 10.6295C23.3005 10.3974 23.0638 10.1874 22.2288 9.49119L15.4173 3.81248C14.9048 3.38523 14.5759 3.11221 14.3073 2.92144C14.0519 2.74005 13.9318 2.69335 13.8635 2.67469ZM12.4095 0.333393C13.1218 0.138869 13.8782 0.138869 14.5905 0.333393C15.0846 0.468379 15.4944 0.705748 15.8767 0.977257C16.2368 1.23296 16.6424 1.57106 17.1093 1.96038L23.9561 7.66861C23.993 7.69933 24.0293 7.72964 24.0653 7.75956C24.7435 8.32436 25.2557 8.75103 25.6304 9.27949C25.9469 9.72622 26.1829 10.2189 26.3285 10.7377C26.5007 11.3513 26.5005 11.9939 26.4999 12.8445C26.4999 12.8896 26.4999 12.9352 26.4999 12.9815V19.1303C26.4999 20.1283 26.4999 20.952 26.4405 21.6226C26.3789 22.3192 26.2464 22.9592 25.9144 23.5586C25.4211 24.4494 24.6467 25.1756 23.697 25.6383C23.0578 25.9497 22.3756 26.074 21.6328 26.1318C20.9178 26.1875 20.0396 26.1875 18.9755 26.1875H18.4465C18.4364 26.1875 18.4262 26.1875 18.4158 26.1875C18.2584 26.1875 18.0704 26.1876 17.9048 26.1747C17.7128 26.1598 17.438 26.1214 17.1511 25.9816C16.7949 25.8081 16.5045 25.5357 16.3195 25.2017C16.1705 24.9325 16.1295 24.6747 16.1135 24.4947C16.0998 24.3394 16.0999 24.163 16.0999 24.0154L16.1 20.0911C16.1 18.7443 14.9359 17.6526 13.5 17.6526C12.0641 17.6526 10.9 18.7443 10.9 20.0911L10.9 24.0154C10.9001 24.163 10.9002 24.3394 10.8864 24.4947C10.8705 24.6747 10.8295 24.9325 10.6805 25.2017C10.4955 25.5357 10.2051 25.8081 9.84892 25.9816C9.56199 26.1214 9.28716 26.1598 9.09516 26.1747C8.92958 26.1876 8.74155 26.1875 8.5841 26.1875C8.57378 26.1875 8.56357 26.1875 8.55352 26.1875H8.02447C6.96037 26.1875 6.08217 26.1875 5.36716 26.1318C4.62441 26.074 3.94212 25.9497 3.303 25.6383C2.35326 25.1756 1.57889 24.4494 1.08554 23.5586C0.753548 22.9592 0.621118 22.3192 0.559433 21.6226C0.500063 20.952 0.500076 20.1283 0.500089 19.1303V12.9815C0.500089 12.9352 0.500063 12.8896 0.50005 12.8445C0.499569 11.9939 0.499218 11.3513 0.671492 10.7377C0.81713 10.2189 1.05301 9.72622 1.36964 9.27949C1.74419 8.75103 2.2565 8.32436 2.93467 7.75957C2.9706 7.72964 3.00699 7.69933 3.04386 7.66861L9.89068 1.9604C10.3576 1.57106 10.7631 1.23296 11.1233 0.977257C11.5056 0.705748 11.9154 0.468379 12.4095 0.333393Z"/>
</svg>
