<svg width="24" height="25" viewBox="0 0 24 25" fill="none" xmlns="http://www.w3.org/2000/svg">
<g clip-path="url(#clip0_1854_709)">
<path fill-rule="evenodd" clip-rule="evenodd" d="M7.94063 13.5609C7.65973 13.2796 7.50195 12.8984 7.50195 12.5009C7.50195 12.1034 7.65973 11.7221 7.94063 11.4409L13.5966 5.78288C13.878 5.50161 14.2596 5.34366 14.6575 5.34375C14.8545 5.3438 15.0495 5.38264 15.2315 5.45808C15.4135 5.53351 15.5789 5.64404 15.7181 5.78338C15.8574 5.92271 15.9679 6.08811 16.0432 6.27013C16.1186 6.45215 16.1573 6.64723 16.1573 6.84423C16.1572 7.04123 16.1184 7.23629 16.0429 7.41828C15.9675 7.60026 15.857 7.76561 15.7176 7.90488L11.1216 12.5009L15.7176 17.0969C15.861 17.2352 15.9753 17.4006 16.054 17.5836C16.1327 17.7666 16.1742 17.9634 16.176 18.1626C16.1778 18.3617 16.14 18.5593 16.0646 18.7436C15.9893 18.928 15.878 19.0955 15.7372 19.2365C15.5965 19.3774 15.429 19.4888 15.2447 19.5643C15.0604 19.6398 14.8629 19.6779 14.6637 19.6762C14.4646 19.6746 14.2677 19.6333 14.0847 19.5548C13.9016 19.4763 13.7361 19.3621 13.5976 19.2189L7.93863 13.5609H7.94063Z" fill="black"/>
</g>
<defs>
<clipPath id="clip0_1854_709">
<rect width="24" height="24" fill="white" transform="translate(0 0.5)"/>
</clipPath>
</defs>
</svg>
