<svg width="26" height="27" viewBox="0 0 26 27" fill="none" xmlns="http://www.w3.org/2000/svg">
<path d="M1 6.52083C1 3.57531 3.38781 1.1875 6.33333 1.1875H19.6667C22.6121 1.1875 25 3.57531 25 6.52083V19.8542C25 22.7996 22.6121 25.1875 19.6667 25.1875H6.33333C3.38781 25.1875 1 22.7996 1 19.8542V6.52083Z" stroke="#FE4C40" stroke-width="2"/>
<path d="M18.6971 12.038C19.2177 11.5173 19.2177 10.673 18.6971 10.1524L16.3083 7.76357C15.7876 7.24287 14.9433 7.24288 14.4227 7.76357L8.94663 13.2396L8.12879 18.1846C8.11388 18.2749 8.19209 18.353 8.28228 18.338L13.2211 17.5141L18.6971 12.038Z" stroke="#FE4C40" stroke-width="2"/>
</svg>
