<svg width="24" height="25" viewBox="0 0 24 25" fill="none" xmlns="http://www.w3.org/2000/svg">
<path d="M19.9009 13.1594C19.7406 12.9769 19.6521 12.7423 19.6521 12.4994C19.6521 12.2565 19.7406 12.0219 19.9009 11.8394L21.1809 10.3994C21.3219 10.2421 21.4095 10.0441 21.4311 9.83391C21.4526 9.62372 21.407 9.41209 21.3009 9.22941L19.3009 5.76941C19.1958 5.58693 19.0358 5.44228 18.8436 5.35609C18.6515 5.2699 18.437 5.24656 18.2309 5.28941L16.3509 5.66941C16.1117 5.71884 15.8626 5.679 15.6508 5.55741C15.4389 5.43582 15.2789 5.24089 15.2009 5.00941L14.5909 3.17941C14.5238 2.98079 14.396 2.80827 14.2255 2.68625C14.055 2.56423 13.8505 2.49887 13.6409 2.49941H9.64087C9.42281 2.48802 9.20701 2.54833 9.02644 2.67112C8.84587 2.79391 8.71045 2.97243 8.64087 3.17941L8.08087 5.00941C8.00287 5.24089 7.84284 5.43582 7.63099 5.55741C7.41913 5.679 7.17009 5.71884 6.93087 5.66941L5.00087 5.28941C4.80542 5.26179 4.60617 5.29263 4.42822 5.37805C4.25027 5.46346 4.10157 5.59964 4.00087 5.76941L2.00087 9.22941C1.89203 9.41006 1.84309 9.62049 1.86106 9.83063C1.87902 10.0408 1.96296 10.2398 2.10087 10.3994L3.37087 11.8394C3.53119 12.0219 3.61961 12.2565 3.61961 12.4994C3.61961 12.7423 3.53119 12.9769 3.37087 13.1594L2.10087 14.5994C1.96296 14.759 1.87902 14.958 1.86106 15.1682C1.84309 15.3783 1.89203 15.5888 2.00087 15.7694L4.00087 19.2294C4.10597 19.4119 4.26599 19.5565 4.45812 19.6427C4.65026 19.7289 4.8647 19.7522 5.07087 19.7094L6.95087 19.3294C7.19009 19.28 7.43913 19.3198 7.65099 19.4414C7.86284 19.563 8.02287 19.7579 8.10087 19.9894L8.71087 21.8194C8.78045 22.0264 8.91587 22.2049 9.09644 22.3277C9.27701 22.4505 9.49281 22.5108 9.71087 22.4994H13.7109C13.9205 22.4999 14.125 22.4346 14.2955 22.3126C14.466 22.1905 14.5938 22.018 14.6609 21.8194L15.2709 19.9894C15.3489 19.7579 15.5089 19.563 15.7208 19.4414C15.9326 19.3198 16.1817 19.28 16.4209 19.3294L18.3009 19.7094C18.507 19.7522 18.7215 19.7289 18.9136 19.6427C19.1058 19.5565 19.2658 19.4119 19.3709 19.2294L21.3709 15.7694C21.477 15.5867 21.5226 15.3751 21.5011 15.1649C21.4795 14.9547 21.3919 14.7567 21.2509 14.5994L19.9009 13.1594ZM18.4109 14.4994L19.2109 15.3994L17.9309 17.6194L16.7509 17.3794C16.0307 17.2322 15.2814 17.3545 14.6455 17.7232C14.0095 18.0919 13.531 18.6812 13.3009 19.3794L12.9209 20.4994H10.3609L10.0009 19.3594C9.77073 18.6612 9.29225 18.0719 8.65628 17.7032C8.0203 17.3345 7.27109 17.2122 6.55087 17.3594L5.37087 17.5994L4.07087 15.3894L4.87087 14.4894C5.36283 13.9394 5.6348 13.2273 5.6348 12.4894C5.6348 11.7515 5.36283 11.0394 4.87087 10.4894L4.07087 9.58941L5.35087 7.38941L6.53087 7.62941C7.25109 7.77663 8.0003 7.65429 8.63628 7.28561C9.27225 6.91692 9.75073 6.32757 9.98087 5.62941L10.3609 4.49941H12.9209L13.3009 5.63941C13.531 6.33757 14.0095 6.92692 14.6455 7.29561C15.2814 7.66429 16.0307 7.78663 16.7509 7.63941L17.9309 7.39941L19.2109 9.61941L18.4109 10.5194C17.9244 11.0682 17.6558 11.7761 17.6558 12.5094C17.6558 13.2427 17.9244 13.9506 18.4109 14.4994ZM11.6409 8.49941C10.8497 8.49941 10.0764 8.734 9.41859 9.17353C8.76079 9.61305 8.2481 10.2378 7.94535 10.9687C7.6426 11.6996 7.56339 12.5038 7.71773 13.2798C7.87207 14.0557 8.25304 14.7684 8.81245 15.3278C9.37186 15.8872 10.0846 16.2682 10.8605 16.4225C11.6364 16.5769 12.4407 16.4977 13.1716 16.1949C13.9025 15.8922 14.5272 15.3795 14.9668 14.7217C15.4063 14.0639 15.6409 13.2905 15.6409 12.4994C15.6409 11.4385 15.2194 10.4211 14.4693 9.67098C13.7192 8.92083 12.7017 8.49941 11.6409 8.49941ZM11.6409 14.4994C11.2453 14.4994 10.8586 14.3821 10.5297 14.1623C10.2008 13.9426 9.94449 13.6302 9.79311 13.2648C9.64174 12.8993 9.60213 12.4972 9.6793 12.1092C9.75647 11.7213 9.94695 11.3649 10.2267 11.0852C10.5064 10.8055 10.8627 10.615 11.2507 10.5378C11.6387 10.4607 12.0408 10.5003 12.4062 10.6516C12.7717 10.803 13.084 11.0594 13.3038 11.3883C13.5236 11.7172 13.6409 12.1038 13.6409 12.4994C13.6409 13.0298 13.4302 13.5385 13.0551 13.9136C12.68 14.2887 12.1713 14.4994 11.6409 14.4994Z" fill="#051B2C"/>
</svg>
